<svg xmlns="http://www.w3.org/2000/svg" viewBox="0 0 900 650" role="img" aria-labelledby="title desc">
  <title id="title">Pack adventure illustration</title>
  <desc id="desc">Camping gear, a trail sign, craft supplies, and pinewood derby cars.</desc>
  <rect width="900" height="650" rx="24" fill="#edf5ef"/>
  <path d="M0 480c115-58 208-78 330-46s190 36 292-18c96-51 180-56 278-12v246H0Z" fill="#1e5b45"/>
  <path d="M0 525c112-35 217-35 315 0s208 47 333 0 196-28 252 4v121H0Z" fill="#123c2f"/>
  <circle cx="735" cy="124" r="58" fill="#f4c542"/>
  <path d="M116 382 238 154l122 228Z" fill="#f8fbf6" stroke="#123c2f" stroke-width="16"/>
  <path d="M238 154v228" stroke="#123c2f" stroke-width="12"/>
  <path d="M168 382h140" stroke="#f4c542" stroke-width="18" stroke-linecap="round"/>
  <path d="M445 250h220v74H445z" fill="#fff" stroke="#123c2f" stroke-width="12"/>
  <path d="M665 287h78" stroke="#123c2f" stroke-width="12" stroke-linecap="round"/>
  <path d="M470 287h145" stroke="#1f4f78" stroke-width="15" stroke-linecap="round"/>
  <path d="M484 392h190c32 0 58 26 58 58v4H426v-4c0-32 26-58 58-58Z" fill="#f4c542" stroke="#123c2f" stroke-width="12"/>
  <circle cx="492" cy="465" r="28" fill="#123c2f"/>
  <circle cx="666" cy="465" r="28" fill="#123c2f"/>
  <path d="M500 195h116v36H500z" fill="#f4c542" stroke="#123c2f" stroke-width="10"/>
</svg>
